# xmcd
#
# Track frame offsets:
#	150
#	13120
#	29674
#	39701
#	48218
#	58967
#	73458
#	82980
#	95999
#	102040
#	115346
#	126418
#	138617
#	147442
#	161463
#
# Disc length: 2278 seconds
#
# Revision: 1
# Processed by: cddbd v1.5.2PL0 Copyright (c) Steve Scherf et al.
# Submitted via: audiograbber 1.82.01
#
DISCID=e608e40f
DTITLE=Stardust Cowboys Mix - The Best Of Country
DYEAR=2003
DGENRE=Country
TTITLE0=Willie Nelson - Home is Where You're Happy
TTITLE1=Rex Allen J - Memory Train
TTITLE2=Waylon Jennings - White Lightning
TTITLE3=Johnny Cash - A Boy Named Sue
TTITLE4=Don Gibson - Oh Lonesome Me
TTITLE5=Ray Conniff - Luar Do Sertao
TTITLE6=Donna Frago - Sticks And Stones
TTITLE7=Johnny Cash - Wanted Man
TTITLE8=Nashville 10 - Singing My Song
TTITLE9=Tex Williams - Smoke Smoke Smoke
TTITLE10=Dolly Parton - It Wasn't God Who Made Honky Tonk Angels
TTITLE11=Lee Hazlewood - These Boots Are Made For Walking
TTITLE12=Willie Nelson - One Step Beyond
TTITLE13=Tom T. Hall - Week In A County Jail
TTITLE14=Webb Pierce - In The Jailhouse
EXTD=Mix of classic country songs
EXTT0=
EXTT1=
EXTT2=
EXTT3=
EXTT4=
EXTT5=
EXTT6=
EXTT7=
EXTT8=
EXTT9=
EXTT10=
EXTT11=
EXTT12=
EXTT13=
EXTT14=
PLAYORDER=
